<?xml version="1.0" standalone="no"?>
<!DOCTYPE svg PUBLIC "-//W3C//DTD SVG 20010904//EN"
 "http://www.w3.org/TR/2001/REC-SVG-20010904/DTD/svg10.dtd">
<svg version="1.0" xmlns="http://www.w3.org/2000/svg"
 width="2048.000000pt" height="2048.000000pt" viewBox="0 0 2048.000000 2048.000000"
 preserveAspectRatio="xMidYMid meet">

<g transform="translate(0.000000,2048.000000) scale(0.100000,-0.100000)"
stroke="none">
<path fill="#F2F4F7" d="M5810 15241 c-74 -23 -136 -78 -169 -151 -21 -45 -21 -51 -21 -2872
0 -1556 3 -2828 7 -2828 4 0 527 520 1163 1155 635 635 1164 1161 1175 1168
55 38 156 49 236 26 39 -11 106 -75 617 -583 l572 -571 988 987 c543 542 1003
994 1022 1004 19 9 65 19 102 22 134 9 -13 146 1761 -1627 l1597 -1596 0 2836
c0 2533 -2 2841 -15 2873 -26 61 -90 123 -151 146 l-55 20 -4402 -1 c-2421 0
-4413 -4 -4427 -8z m3810 -1069 c156 -51 297 -171 368 -313 60 -121 75 -190
70 -324 -4 -84 -11 -127 -31 -183 -95 -269 -358 -445 -642 -429 -325 20 -581
276 -601 601 -19 304 188 586 483 661 84 21 268 14 353 -13z"/>
<path fill="#4C9AE8" d="M10645 11080 l-870 -870 605 -605 605 -605 1745 0 1745 0 -1475 1475
c-811 811 -1477 1475 -1480 1475 -3 0 -397 -391 -875 -870z"/>
<path fill="#F2F4F7" d="M4975 11529 c-426 -305 -766 -650 -1001 -1014 -187 -291 -318 -635
-365 -964 -18 -125 -21 -177 -16 -366 7 -335 51 -539 184 -855 230 -545 707
-1075 1360 -1509 1559 -1037 4039 -1509 6463 -1230 1002 115 1934 357 2759
716 106 46 196 82 198 79 3 -3 -25 -88 -62 -188 -37 -101 -103 -280 -147 -398
-44 -118 -83 -235 -88 -260 -29 -151 105 -310 261 -310 88 0 191 64 232 145
12 25 249 663 422 1140 18 50 58 159 89 244 76 209 75 284 -7 377 -56 64 26
30 -822 341 -247 91 -524 193 -615 226 -146 55 -173 62 -235 62 -84 -1 -133
-23 -189 -85 -49 -55 -66 -97 -66 -166 0 -79 17 -128 63 -180 49 -56 74 -69
294 -148 280 -102 696 -257 711 -265 18 -10 23 -7 -138 -81 -1755 -801 -4151
-1018 -6290 -570 -1374 288 -2491 818 -3172 1506 -214 216 -367 422 -477 641
-336 669 -260 1334 228 1983 83 112 340 380 469 491 l63 54 -3 328 -3 328
-100 -72z"/>
<path fill="#F2F4F7" d="M15400 11272 l0 -329 94 -82 c292 -253 531 -552 676 -846 120 -242
174 -444 189 -701 10 -166 25 -207 96 -273 133 -122 342 -74 418 98 18 41 19
60 14 201 -22 609 -302 1194 -822 1716 -189 191 -508 453 -652 538 -10 6 -13
-61 -13 -322z"/>
<path fill="#4C9AE8" d="M7055 10050 l-1050 -1050 2105 0 2105 0 -709 709 c-391 391 -715 707
-720 704 -6 -3 -7 -2 -3 2 7 8 -659 685 -673 685 -3 0 -478 -472 -1055 -1050z"/>
</g>
</svg>
