<?xml version="1.0" encoding="UTF-8" standalone="no"?>
<svg
    xmlns="http://www.w3.org/2000/svg"
    xmlns:xlink="http://www.w3.org/1999/xlink"
    id="immich-computer-logo-v3"
    viewBox="0 0 663 663"
    version="1.1"
  >
  <!-- Duży kwiat Immich w tle (z pliku immich-logo-inline-light.svg) -->
  <g id="immich-flower" transform="translate(17.2 -17.1) scale(2.527)">
    <path fill="#FA2921" d="M114.82,96.21c11.92,10.55,21.52,21.86,27.7,32.52c10.62-18.99,17.71-41.55,17.8-55.92c0-0.1,0-0.19,0-0.28
      c0-21.26-21.21-29.54-39.48-29.54s-39.48,8.28-39.48,29.54c0,0.29,0,0.68,0,1.15C91.54,78.2,103.61,86.29,114.82,96.21z"/>
    <path fill="#ED79B5" d="M49.8,154.19c7.45-8.29,18.88-17.27,31.77-24.86c13.72-8.07,27.44-13.71,39.49-16.3
      c-14.78-15.96-34.04-29.68-47.68-34.21c-0.1-0.03-0.18-0.06-0.27-0.09c-20.22-6.57-34.65,11.05-40.3,28.42s-4.33,40.11,15.89,46.68
      C48.99,153.93,49.35,154.05,49.8,154.19z"/>
    <path fill="#FFB400" d="M209.07,106.86c-5.65-17.38-20.07-34.99-40.3-28.42c-0.28,0.09-0.65,0.21-1.09,0.35
      c-1.16,11.08-5.12,25.07-11.09,38.79c-6.35,14.6-14.14,27.23-22.36,36.39c21.34,4.23,44.99,4,58.68-0.35
      c0.1-0.03,0.19-0.06,0.27-0.09C213.4,146.97,214.71,124.24,209.07,106.86z"/>
    <path fill="#1E83F7" d="M102.8,171.18c-3.44-15.54-4.56-30.34-3.3-42.59c-19.75,9.12-38.75,23.2-47.27,34.78
      c-0.06,0.08-0.11,0.16-0.16,0.23c-12.5,17.2-0.2,36.37,14.58,47.11s36.81,16.51,49.31-0.69c0.17-0.24,0.4-0.55,0.68-0.93
      C111.05,199.44,106.04,185.79,102.8,171.18z"/>
    <path fill="#18C249" d="M189.48,162.49c-10.9,2.33-25.42,2.88-40.32,1.44c-15.84-1.53-30.26-5.03-41.52-10.02
      c2.57,21.6,10.09,44.02,18.47,55.7c0.06,0.08,0.11,0.16,0.16,0.23c12.5,17.2,34.52,11.43,49.31,0.69
      c14.78-10.74,27.08-29.9,14.58-47.11C189.99,163.18,189.76,162.86,189.48,162.49z"/>
  </g>

  <!-- Monitor na pierwszym planie, ekran pusty (ciemny) -->
  <g id="monitor" transform="translate(336 350) scale(1.54)">
    <g transform="translate(-290.55 -559.43)" stroke-linejoin="round" stroke="#000" stroke-linecap="round">
      <path
          id="stand"
          d="m364.35 712.6l-20.3 19.35c-2.64 3.88 0.48 8.58 5.67 8.23l67.58-0.26c4.61 0.35 8.23-5.19 5.28-9.03l-18.66-18.03-2.06-13.36-36.42-1.07-1.09 14.17z"
          style="stroke:#666666;stroke-width:3;fill:#cccccc"
          stroke-width="2"
          fill="none"
      />
      <path
          id="body"
          style="stroke:#666666;stroke-width:3;fill:#cccccc"
          d="m296.53 569.58l-0.37 127.4c2.27 7.54 5.88 9.65 10.9 9.57l154.79-0.23c7.53-0.06 9.6-6.18 9.16-12.62l0.69-123.94c-0.22-7.82-4.33-8.84-10.28-9.33l-153.76 0.15c-7.06 0.35-10.3 3.24-11.13 9z"
          fill-opacity=".99219"
          stroke-width="2"
          fill="#fff"
      />
      <path
          id="bezel"
          d="m300.76 570.32l-0.49 98.03c0.08 3.39 1.74 6.7 5.4 7.09l153.76 0.26c5.58 0.63 7.95-1.69 8.12-6.35l0.11-97.47c0.62-5.66-3.99-7.76-8.94-7.35l-149.96 0.36c-5.12-0.24-7.73 1.68-8 5.43z"
          style="stroke:#666666;stroke-width:2;fill:#999999"
          fill="#fff"
          fill-opacity=".99219"
      />
      <path
          id="button"
          style="fill-opacity:.99219;stroke:#4d4d4d;stroke-width:2;fill:#999999"
          d="m391.55 691.64a7.8101 7.9843 0 1 1 -15.619 0 7.8101 7.9843 0 1 1 15.619 0z"
      />
      <path
          id="screen"
          d="m307.59 571.28l-0.25 96.47h152.78v-96.22l-152.53-0.25z"
          fill="#333333"
      />
    </g>
  </g>
</svg>
